<svg width="21" height="21" viewBox="0 0 21 21" fill="none" xmlns="http://www.w3.org/2000/svg">
<g opacity="0.7">
<path d="M9.5752 0.946289H10.9814C11.2959 0.988477 11.6115 1.0209 11.924 1.07481C13.7369 1.38731 15.3553 2.12676 16.7521 3.32715C18.5682 4.88731 19.701 6.84473 20.1252 9.20566C20.1869 9.54941 20.2279 9.89707 20.2783 10.2432V11.6494C20.2354 11.9619 20.2025 12.2795 20.1479 12.592C19.7572 14.8229 18.7436 16.7217 17.0873 18.267C15.655 19.6032 13.9713 20.4442 12.0361 20.79C11.6846 20.8525 11.333 20.8939 10.9814 20.9463H9.5752C9.35527 20.8834 9.12637 20.8924 8.90254 20.8592C6.9373 20.5693 5.1916 19.7904 3.70059 18.4764C1.94902 16.9314 0.850977 15.0088 0.43457 12.7068C0.370898 12.3553 0.329883 12.0037 0.27832 11.6494V10.2432C0.338867 10.0225 0.332227 9.79355 0.365039 9.56934C0.650195 7.62402 1.41777 5.89473 2.70879 4.41309C4.2623 2.63105 6.20371 1.51699 8.53652 1.10137C8.88184 1.03887 9.22949 0.99707 9.5752 0.946289ZM10.1307 6.56738C8.75176 6.60371 7.25449 6.5916 5.76465 6.7627C4.93965 6.85762 4.4252 7.30957 4.25176 8.12637C4.10684 8.80957 4.08066 9.50566 4.05137 10.201C3.99653 11.3516 4.05423 12.5049 4.22363 13.6443C4.34395 14.4256 4.78027 14.915 5.49316 15.0713C5.71611 15.1163 5.94149 15.1483 6.16816 15.167C7.10098 15.258 8.03769 15.2818 8.97441 15.301C10.9201 15.34 12.8646 15.3256 14.8033 15.1268C15.6236 15.0424 16.1314 14.583 16.3033 13.7775C16.4549 13.0619 16.4811 12.3322 16.508 11.6057C16.5498 10.4854 16.5127 9.36816 16.3342 8.25957C16.1955 7.4002 15.7525 6.94473 14.9014 6.79316C14.6196 6.74357 14.3353 6.70954 14.0498 6.69121C12.7842 6.60684 11.5158 6.58145 10.1307 6.56738Z" fill="#595959"/>
<path d="M9.04297 9.07422L12.2934 10.9465L9.04297 12.8187V9.07422Z" fill="#595959"/>
</g>
</svg>
